<svg width="20" height="20" viewBox="0 0 20 20" fill="none" xmlns="http://www.w3.org/2000/svg">
<path d="M16.6667 10.45V12.5917C16.6801 13.4325 16.3612 14.2447 15.7792 14.8517C15.1971 15.4587 14.399 15.8115 13.5583 15.8333H5.33335L6.50002 17.1667C6.61314 17.2859 6.67621 17.444 6.67621 17.6083C6.67621 17.7727 6.61314 17.9308 6.50002 18.05C6.44684 18.1041 6.38321 18.1467 6.313 18.1754C6.2428 18.204 6.1675 18.2181 6.09168 18.2167C6.00812 18.2164 5.92555 18.1985 5.84942 18.164C5.7733 18.1295 5.70534 18.0793 5.65002 18.0167L3.44168 15.5167C3.34249 15.4005 3.288 15.2528 3.288 15.1C3.288 14.9473 3.34249 14.7995 3.44168 14.6833L5.65002 12.4333C5.70433 12.3779 5.76916 12.3339 5.8407 12.3038C5.91225 12.2737 5.98908 12.2583 6.06668 12.2583C6.14429 12.2583 6.22112 12.2737 6.29266 12.3038C6.36421 12.3339 6.42904 12.3779 6.48335 12.4333C6.59648 12.5526 6.65954 12.7107 6.65954 12.875C6.65954 13.0394 6.59648 13.1974 6.48335 13.3167L5.20002 14.5917H13.5333C14.0535 14.5807 14.5481 14.3641 14.9089 13.9893C15.2697 13.6144 15.4673 13.1119 15.4583 12.5917V10.45C15.4583 10.2909 15.5216 10.1383 15.6341 10.0257C15.7466 9.91322 15.8992 9.85001 16.0583 9.85001C16.2175 9.85001 16.3701 9.91322 16.4826 10.0257C16.5951 10.1383 16.6583 10.2909 16.6583 10.45H16.6667ZM14.1667 1.95834C14.0559 1.84842 13.9061 1.78674 13.75 1.78674C13.5939 1.78674 13.4442 1.84842 13.3333 1.95834C13.2183 2.07658 13.1539 2.23504 13.1539 2.40001C13.1539 2.56498 13.2183 2.72344 13.3333 2.84167L14.55 4.10001H6.38335C5.53754 4.11753 4.73308 4.46927 4.1459 5.07831C3.55873 5.68735 3.23662 6.50412 3.25002 7.35001V9.36667C3.23998 9.45197 3.24812 9.53843 3.2739 9.62035C3.29968 9.70228 3.34252 9.77782 3.39959 9.842C3.45666 9.90618 3.52668 9.95755 3.60503 9.99272C3.68338 10.0279 3.7683 10.0461 3.85418 10.0461C3.94007 10.0461 4.02498 10.0279 4.10333 9.99272C4.18169 9.95755 4.2517 9.90618 4.30878 9.842C4.36585 9.77782 4.40868 9.70228 4.43446 9.62035C4.46024 9.53843 4.46838 9.45197 4.45835 9.36667V7.35001C4.45283 7.09213 4.4983 6.83571 4.59216 6.59545C4.68602 6.3552 4.82641 6.13586 5.00528 5.95002C5.18415 5.76418 5.39797 5.61551 5.63446 5.51254C5.87095 5.40957 6.12545 5.35434 6.38335 5.35001H14.7167L13.4917 6.60001C13.3766 6.71824 13.3123 6.8767 13.3123 7.04167C13.3123 7.20664 13.3766 7.3651 13.4917 7.48334C13.5472 7.54231 13.6144 7.58907 13.689 7.62064C13.7637 7.6522 13.844 7.66788 13.925 7.66667C14.0008 7.6676 14.0759 7.65332 14.1461 7.6247C14.2162 7.59607 14.2799 7.55367 14.3333 7.50001L16.5417 5.25001C16.5986 5.19162 16.6434 5.12251 16.6734 5.0467C16.7035 4.97089 16.7182 4.88987 16.7167 4.80834C16.7201 4.64112 16.6571 4.47935 16.5417 4.35834L14.1667 1.95834Z" fill="#666666"/>
</svg>
