<svg width="20" height="20" viewBox="0 0 20 20" fill="none" xmlns="http://www.w3.org/2000/svg">
<path d="M8.7731 18.9414C6.86588 18.9152 5.04703 18.1331 3.71601 16.7669C2.04511 15.0743 1.0878 12.8048 1.04166 10.4268C0.950019 6.17784 3.54105 2.48708 7.20681 1.65395C7.4584 1.59814 7.7195 1.60145 7.96959 1.66361C8.21968 1.72577 8.45195 1.84509 8.64813 2.0122C8.87361 2.20734 9.05379 2.44933 9.1761 2.72129C9.29842 2.99326 9.35991 3.28863 9.35629 3.58681V9.13544C9.37355 10.2608 9.82068 11.3368 10.606 12.143L12.9221 14.7674C13.1191 14.9934 13.265 15.2593 13.3499 15.5468C13.4347 15.8344 13.4564 16.1369 13.4136 16.4337C13.3839 16.7132 13.294 16.9831 13.1502 17.2247C13.0064 17.4663 12.8121 17.6739 12.5805 17.8333C11.5124 18.526 10.2783 18.9201 9.00637 18.9747L8.7731 18.9414ZM7.57339 2.82033L7.49841 2.83699C4.38251 3.55348 2.18305 6.73604 2.26636 10.3935C2.30133 12.4456 3.12471 14.4057 4.5658 15.8671C5.13821 16.459 5.82648 16.9264 6.58764 17.2404C7.34881 17.5543 8.16651 17.7079 8.98971 17.6917C10.0547 17.6543 11.0892 17.3258 11.9806 16.7419C12.0631 16.6833 12.1318 16.6075 12.1822 16.5198C12.2325 16.4321 12.2632 16.3345 12.2722 16.2337C12.2888 16.1167 12.2803 15.9975 12.2473 15.884C12.2142 15.7705 12.1574 15.6654 12.0806 15.5755L9.77285 12.9512C8.76469 11.9208 8.18932 10.5435 8.16491 9.10212V3.55348C8.16929 3.44057 8.14836 3.32811 8.10368 3.22432C8.05899 3.12054 7.99167 3.02805 7.90664 2.95363C7.81506 2.87079 7.69684 2.8235 7.57339 2.82033ZM16.3379 16.342C16.134 16.3416 15.9322 16.3001 15.7447 16.22C15.5571 16.1398 15.3877 16.0226 15.2465 15.8755L12.2556 12.7762C12.0685 12.5821 11.9415 12.3381 11.8898 12.0736C11.8381 11.809 11.8638 11.5352 11.964 11.2849C12.0575 11.0418 12.2218 10.8324 12.4357 10.6839C12.6496 10.5353 12.9033 10.4545 13.1637 10.4518H17.3876C17.6183 10.4541 17.8456 10.5076 18.0531 10.6085C18.2605 10.7093 18.443 10.855 18.5874 11.035C18.7295 11.2123 18.8339 11.4169 18.8941 11.6361C18.9543 11.8554 18.969 12.0846 18.9373 12.3097C18.7554 13.5028 18.3116 14.6409 17.6376 15.6422C17.5042 15.8333 17.3323 15.9944 17.1328 16.1149C16.9333 16.2355 16.7108 16.3128 16.4795 16.342H16.3379ZM13.1637 11.6515C13.141 11.6508 13.1187 11.6578 13.1005 11.6714C13.0824 11.6851 13.0694 11.7045 13.0637 11.7265C13.0488 11.7455 13.0408 11.769 13.0408 11.7931C13.0408 11.8173 13.0488 11.8407 13.0637 11.8598L16.0796 14.984C16.1166 15.0233 16.1622 15.0536 16.2127 15.0723C16.2633 15.0911 16.3176 15.098 16.3712 15.0923C16.4317 15.086 16.49 15.0663 16.5419 15.0346C16.5938 15.0029 16.638 14.96 16.6712 14.909C17.2375 14.062 17.6101 13.1005 17.7626 12.0931C17.7688 12.0452 17.7646 11.9966 17.7502 11.9506C17.7358 11.9046 17.7116 11.8622 17.6792 11.8265C17.6456 11.7805 17.6018 11.7431 17.5511 11.717C17.5005 11.691 17.4446 11.6771 17.3876 11.6765L13.1637 11.6515ZM17.5459 9.48536H13.3303C12.6556 9.47222 12.0136 9.1921 11.5451 8.70641C11.0766 8.22071 10.8198 7.56907 10.8309 6.89433V2.48708C10.8303 2.28021 10.873 2.0755 10.9562 1.8861C11.0394 1.6967 11.1613 1.52681 11.3141 1.38735C11.4582 1.25103 11.6311 1.14881 11.82 1.08825C12.0089 1.02768 12.209 1.01032 12.4055 1.03744C14.0823 1.28137 15.6269 2.08601 16.7878 3.32021C17.9756 4.5796 18.7314 6.18457 18.9456 7.90242C18.9697 8.10591 18.9518 8.31218 18.893 8.50849C18.8343 8.7048 18.7359 8.88698 18.604 9.0438C18.4725 9.19483 18.3098 9.31552 18.1272 9.39751C17.9445 9.4795 17.7462 9.52085 17.5459 9.51868V9.48536ZM12.2222 2.23714C12.1986 2.23789 12.1753 2.24344 12.1538 2.25347C12.1323 2.26349 12.1131 2.27778 12.0973 2.29546C12.0729 2.31571 12.0535 2.34124 12.0405 2.37011C12.0275 2.39898 12.0213 2.43044 12.0223 2.46209V6.92765C12.0133 7.10575 12.0404 7.28382 12.1019 7.45119C12.1634 7.61857 12.258 7.77182 12.3802 7.90173C12.5023 8.03165 12.6494 8.13557 12.8127 8.20727C12.9759 8.27897 13.152 8.31696 13.3303 8.31898H17.5626C17.5949 8.31898 17.6268 8.31145 17.6557 8.29699C17.6847 8.28253 17.7098 8.26153 17.7292 8.23567C17.7494 8.21508 17.7645 8.19001 17.7732 8.1625C17.7819 8.135 17.7839 8.10583 17.7792 8.07737C17.6094 6.60536 16.9662 5.22829 15.9463 4.15334C14.9614 3.12724 13.6571 2.46626 12.2472 2.2788L12.2222 2.23714Z" fill="#666666"/>
</svg>
