<svg width="20" height="20" viewBox="0 0 20 20" fill="none" xmlns="http://www.w3.org/2000/svg">
<path d="M6.71932 7.27211C6.71932 7.43744 6.65364 7.596 6.53673 7.7129C6.41983 7.82981 6.26127 7.89549 6.09594 7.89549H4.24244C4.07711 7.89549 3.91855 7.82981 3.80164 7.7129C3.68474 7.596 3.61906 7.43744 3.61906 7.27211C3.61906 7.10678 3.68474 6.94822 3.80164 6.83132C3.91855 6.71441 4.07711 6.64873 4.24244 6.64873H6.09594C6.2606 6.65089 6.41791 6.71725 6.53435 6.8337C6.65079 6.95014 6.71716 7.10745 6.71932 7.27211ZM9.50373 12.1012H7.65022C7.48489 12.1012 7.32634 12.1669 7.20943 12.2838C7.09253 12.4007 7.02685 12.5592 7.02685 12.7246C7.02685 12.8899 7.09253 13.0485 7.20943 13.1654C7.32634 13.2823 7.48489 13.3479 7.65022 13.3479H9.50373C9.66906 13.3479 9.82762 13.2823 9.94452 13.1654C10.0614 13.0485 10.1271 12.8899 10.1271 12.7246C10.1271 12.5592 10.0614 12.4007 9.94452 12.2838C9.82762 12.1669 9.66906 12.1012 9.50373 12.1012ZM6.09594 9.37496H4.24244C4.07711 9.37496 3.91855 9.44064 3.80164 9.55755C3.68474 9.67445 3.61906 9.83301 3.61906 9.99834C3.61906 10.1637 3.68474 10.3222 3.80164 10.4391C3.91855 10.556 4.07711 10.6217 4.24244 10.6217H6.09594C6.26127 10.6217 6.41983 10.556 6.53673 10.4391C6.65364 10.3222 6.71932 10.1637 6.71932 9.99834C6.71932 9.83301 6.65364 9.67445 6.53673 9.55755C6.41983 9.44064 6.26127 9.37496 6.09594 9.37496ZM9.50373 6.64873H8.37334C8.20801 6.64873 8.04945 6.71441 7.93255 6.83132C7.81564 6.94822 7.74996 7.10678 7.74996 7.27211C7.74996 7.43744 7.81564 7.596 7.93255 7.7129C8.04945 7.82981 8.20801 7.89549 8.37334 7.89549H9.50373C9.66906 7.89549 9.82762 7.82981 9.94452 7.7129C10.0614 7.596 10.1271 7.43744 10.1271 7.27211C10.1271 7.10678 10.0614 6.94822 9.94452 6.83132C9.82762 6.71441 9.66906 6.64873 9.50373 6.64873ZM18.6466 13.8799V15.7916C18.6477 16.2071 18.5668 16.6187 18.4085 17.0028C18.2503 17.387 18.0178 17.7361 17.7244 18.0303C17.431 18.3245 17.0825 18.5579 16.6987 18.7171C16.315 18.8764 15.0724 18.9583 14.657 18.9583H4.45854C3.6179 18.9561 2.81245 18.6206 2.2188 18.0254C1.62516 17.4302 1.29179 16.6239 1.29179 15.7833V2.9251C1.28983 2.67503 1.35713 2.42929 1.48622 2.21511C1.61532 2.00093 1.80118 1.82666 2.02322 1.7116C2.24478 1.59686 2.49344 1.54474 2.74242 1.56085C2.99141 1.57696 3.23128 1.66069 3.4362 1.80302L4.47516 2.54276C4.49033 2.55152 4.50752 2.55613 4.52503 2.55613C4.54254 2.55613 4.55974 2.55152 4.5749 2.54276L6.23724 1.32095C6.46104 1.15025 6.73219 1.05302 7.01346 1.0426C7.29473 1.03218 7.57234 1.10909 7.80815 1.26276L9.47048 2.37653C9.49039 2.38908 9.51344 2.39574 9.53698 2.39574C9.56051 2.39574 9.58356 2.38908 9.60347 2.37653L10.6175 1.7116C10.8242 1.5792 11.0626 1.5047 11.3079 1.49586C11.5531 1.48702 11.7963 1.54417 12.012 1.66134C12.2276 1.77851 12.4079 1.95142 12.534 2.16201C12.66 2.3726 12.7273 2.61317 12.7287 2.85861V10.9874H16.3276C16.6402 10.9807 16.951 11.037 17.2413 11.1531C17.5317 11.2691 17.7957 11.4424 18.0176 11.6628C18.2395 11.8831 18.4147 12.1459 18.5327 12.4354C18.6508 12.7249 18.7093 13.0353 18.7048 13.3479L18.6466 13.8799ZM12.1385 17.7199C11.7173 17.1653 11.4896 16.488 11.4902 15.7916V11.6357V2.86692C11.4916 2.84528 11.4868 2.82369 11.4765 2.8046C11.4663 2.78551 11.4508 2.76967 11.432 2.75887C11.4128 2.74868 11.3914 2.74335 11.3697 2.74335C11.348 2.74335 11.3266 2.74868 11.3074 2.75887L10.31 3.41549C10.0866 3.55837 9.82704 3.63431 9.56191 3.63431C9.29678 3.63431 9.03719 3.55837 8.81386 3.41549L7.15152 2.29341C7.13004 2.28101 7.10568 2.27448 7.08087 2.27448C7.05607 2.27448 7.03171 2.28101 7.01023 2.29341L5.40607 3.53185C5.17054 3.71878 4.87981 3.82258 4.57914 3.82709C4.27848 3.8316 3.98477 3.73656 3.74374 3.55679L2.7214 2.82536C2.69978 2.81837 2.67652 2.81837 2.65491 2.82536H2.59672C2.57792 2.83616 2.56251 2.852 2.55223 2.87109C2.54195 2.89018 2.53721 2.91177 2.53854 2.93341V15.7916C2.53854 16.3016 2.74056 16.7908 3.10039 17.1522C3.46022 17.5136 3.94856 17.7177 4.45854 17.7199H12.1385ZM17.4164 13.3479C17.4165 13.0606 17.3029 12.7849 17.1005 12.581C16.8981 12.377 16.6233 12.2613 16.3359 12.2591H12.737V15.7168C12.7357 16.0567 12.8185 16.3917 12.978 16.6919C13.1375 16.9921 13.3688 17.2481 13.6513 17.4373L13.7926 17.5204L13.9255 17.5869C14.0701 17.6432 14.2207 17.6822 14.3744 17.7033C14.641 17.7471 15.7451 17.7335 16.006 17.6633C16.2669 17.593 16.5097 17.4678 16.7183 17.296C16.9371 17.1148 17.1131 16.8874 17.2338 16.6302C17.3545 16.373 17.4169 16.0923 17.4164 15.8082V13.3479ZM9.50373 9.39159H8.37334C8.20801 9.39159 8.04945 9.45726 7.93255 9.57417C7.81564 9.69108 7.74996 9.84963 7.74996 10.015C7.74996 10.1803 7.81564 10.3389 7.93255 10.4558C8.04945 10.5727 8.20801 10.6383 8.37334 10.6383H9.50373C9.66906 10.6383 9.82762 10.5727 9.94452 10.4558C10.0614 10.3389 10.1271 10.1803 10.1271 10.015C10.1271 9.84963 10.0614 9.69108 9.94452 9.57417C9.82762 9.45726 9.66906 9.39159 9.50373 9.39159Z" fill="#666666"/>
</svg>
