<svg width="20" height="20" viewBox="0 0 20 20" fill="none" xmlns="http://www.w3.org/2000/svg">
<path d="M9.99992 3.25C10.5062 3.25 10.9166 3.66041 10.9166 4.16667C10.9166 4.67293 10.5062 5.08333 9.99992 5.08333C9.49366 5.08333 9.08325 4.67293 9.08325 4.16667C9.08325 3.66041 9.49366 3.25 9.99992 3.25Z" fill="#999999" stroke="#999999" stroke-width="1.5"/>
<path d="M11.6666 9.99992C11.6666 9.07944 10.9204 8.33325 9.99992 8.33325C9.07944 8.33325 8.33325 9.07944 8.33325 9.99992C8.33325 10.9204 9.07944 11.6666 9.99992 11.6666C10.9204 11.6666 11.6666 10.9204 11.6666 9.99992Z" fill="#999999"/>
<path d="M11.6666 15.8334C11.6666 14.9129 10.9204 14.1667 9.99992 14.1667C9.07944 14.1667 8.33325 14.9129 8.33325 15.8334C8.33325 16.7539 9.07944 17.5001 9.99992 17.5001C10.9204 17.5001 11.6666 16.7539 11.6666 15.8334Z" fill="#999999"/>
</svg>
