<svg width="20" height="20" viewBox="0 0 20 20" fill="none" xmlns="http://www.w3.org/2000/svg">
<path fill-rule="evenodd" clip-rule="evenodd" d="M15.0058 14.0038C16.0797 12.7062 16.7251 11.041 16.7251 9.22501C16.7251 5.08287 13.3672 1.72501 9.2251 1.72501C5.08296 1.72501 1.7251 5.08287 1.7251 9.22501C1.7251 13.3671 5.08296 16.725 9.2251 16.725C11.0411 16.725 12.7064 16.0796 14.004 15.0056L17.0576 18.0591C17.3342 18.3357 17.7827 18.3357 18.0593 18.0591C18.3359 17.7825 18.3359 17.334 18.0593 17.0574L15.0058 14.0038ZM9.2251 15.335C5.85065 15.335 3.11513 12.5995 3.11513 9.22501C3.11513 5.85056 5.85065 3.11504 9.2251 3.11504C12.5995 3.11504 15.3351 5.85056 15.3351 9.22501C15.3351 12.5995 12.5995 15.335 9.2251 15.335Z" fill="#808080"/>
</svg>
