<svg width="20" height="20" viewBox="0 0 20 20" fill="none" xmlns="http://www.w3.org/2000/svg">
<path d="M15.4922 2.11658L12.1566 1.35075C11.1594 1.12498 10.116 1.22654 9.18104 1.64037C8.24609 2.05421 7.46936 2.75828 6.966 3.64824L4.23454 4.4396C3.64114 4.60903 3.08702 4.89395 2.60396 5.27801C2.12091 5.66206 1.71843 6.13771 1.4196 6.67765C1.12077 7.2176 0.931474 7.81123 0.86257 8.42449C0.793665 9.03776 0.846506 9.65859 1.01806 10.2514L2.49016 15.3569C2.77328 16.3353 3.36568 17.1957 4.17866 17.8093C4.99165 18.4229 5.9815 18.7566 7.00004 18.7606C7.43928 18.7651 7.87714 18.7107 8.30195 18.5989L11.8162 17.5863C12.2355 17.4571 12.6339 17.2679 12.999 17.0247H13.1607C14.2329 17.0228 15.2727 16.6573 16.1103 15.9881C16.948 15.3189 17.534 14.3855 17.7727 13.3402L19.0491 7.78372C19.3266 6.56071 19.1081 5.27758 18.4414 4.21536C17.7747 3.15315 16.7142 2.39846 15.4922 2.11658ZM7.95307 17.3736C7.51954 17.5033 7.06451 17.5452 6.61459 17.497C6.16466 17.4487 5.72887 17.3112 5.33272 17.0925C4.93656 16.8739 4.58798 16.5784 4.30737 16.2234C4.02676 15.8684 3.81976 15.461 3.69846 15.0251L2.22637 9.91953C2.1002 9.48792 2.06081 9.03559 2.11047 8.58867C2.16013 8.14175 2.29785 7.7091 2.51568 7.31571C2.73269 6.91645 3.02745 6.56469 3.38258 6.28117C3.73771 5.99765 4.14602 5.78812 4.58342 5.66492L6.42992 5.12884L5.20459 10.4641C4.92462 11.6906 5.14283 12.9781 5.81131 14.0438C6.47979 15.1096 7.54389 15.8664 8.76995 16.1483L10.6845 16.5822L7.95307 17.3736ZM17.8152 7.50291L16.5389 13.0594C16.3625 13.8282 15.9291 14.5138 15.3101 15.0028C14.6912 15.4917 13.9239 15.7547 13.1352 15.7483H12.8629C12.6967 15.7458 12.5313 15.7258 12.3693 15.6888L9.02523 14.9229C8.13077 14.7181 7.35417 14.1666 6.86598 13.3897C6.37778 12.6127 6.21788 11.6737 6.42141 10.779L7.69779 5.22244C7.74454 5.04528 7.80427 4.87179 7.87648 4.70338C7.9012 4.63385 7.9296 4.56568 7.96158 4.49916C8.2943 3.79077 8.86099 3.21867 9.5662 2.87924C10.2714 2.53981 11.072 2.45378 11.8333 2.63565L15.1774 3.40147C16.069 3.59917 16.8465 4.14107 17.3405 4.90922C17.8346 5.67737 18.0052 6.60958 17.8152 7.50291Z" fill="#666666"/>
</svg>
