<svg width="20" height="20" viewBox="0 0 20 20" fill="none" xmlns="http://www.w3.org/2000/svg">
<path d="M16.2334 3.67516H13.3334C13.3081 3.14064 13.0805 2.63573 12.6968 2.26279C12.313 1.88986 11.8018 1.67681 11.2667 1.66683H9.29175C8.75313 1.66836 8.2357 1.87678 7.84641 2.24901C7.45711 2.62124 7.22573 3.12883 7.20008 3.66683H3.76675C3.04327 3.66903 2.35017 3.95798 1.83937 4.47034C1.32858 4.9827 1.04174 5.67668 1.04175 6.40016V10.1335C1.04256 10.4699 1.11768 10.8019 1.26174 11.1059C1.4058 11.4098 1.61524 11.6782 1.87508 11.8918V15.9668C1.87508 16.5746 2.11652 17.1575 2.5463 17.5873C2.97607 18.0171 3.55896 18.2585 4.16675 18.2585H15.8334C16.4412 18.2585 17.0241 18.0171 17.4539 17.5873C17.8836 17.1575 18.1251 16.5746 18.1251 15.9668V11.8918C18.3849 11.6782 18.5944 11.4098 18.7384 11.1059C18.8825 10.8019 18.9576 10.4699 18.9584 10.1335V6.40016C18.9562 5.67812 18.6684 4.98629 18.1579 4.47572C17.6473 3.96516 16.9555 3.67736 16.2334 3.67516ZM9.29175 2.92516H11.2667C11.4741 2.92412 11.6743 3.00039 11.8284 3.13907C11.9825 3.27776 12.0794 3.46889 12.1001 3.67516H8.45841C8.47914 3.46889 8.57601 3.27776 8.7301 3.13907C8.88419 3.00039 9.08444 2.92412 9.29175 2.92516ZM2.29175 6.40016C2.29175 6.00897 2.44715 5.6338 2.72377 5.35718C3.00038 5.08056 3.37555 4.92516 3.76675 4.92516H16.2667C16.6579 4.92516 17.0331 5.08056 17.3097 5.35718C17.5863 5.6338 17.7417 6.00897 17.7417 6.40016V10.1335C17.7429 10.3251 17.6895 10.5131 17.5876 10.6755C17.4858 10.8378 17.3398 10.9678 17.1667 11.0502L17.0334 11.1085C16.9277 11.1521 16.8145 11.1747 16.7001 11.1752H3.33341C3.21904 11.1747 3.10583 11.1521 3.00008 11.1085L2.86675 11.0502C2.6937 10.9678 2.54771 10.8378 2.44587 10.6755C2.34403 10.5131 2.29057 10.3251 2.29175 10.1335V6.40016ZM16.8751 12.4168V15.9668C16.8751 16.2431 16.7653 16.508 16.57 16.7034C16.3746 16.8987 16.1097 17.0085 15.8334 17.0085H4.16675C3.89048 17.0085 3.62553 16.8987 3.43018 16.7034C3.23483 16.508 3.12508 16.2431 3.12508 15.9668V12.4168H16.8751ZM8.47508 10.1585C8.47508 9.99273 8.54093 9.83376 8.65814 9.71655C8.77535 9.59934 8.93432 9.53349 9.10008 9.53349H11.4584C11.6242 9.53349 11.7831 9.59934 11.9004 9.71655C12.0176 9.83376 12.0834 9.99273 12.0834 10.1585C12.0834 10.3243 12.0176 10.4832 11.9004 10.6004C11.7831 10.7176 11.6242 10.7835 11.4584 10.7835H9.10008C8.93499 10.7813 8.77727 10.7148 8.66053 10.5981C8.54378 10.4813 8.47724 10.3236 8.47508 10.1585Z" fill="#666666"/>
</svg>
