<svg width="20" height="20" viewBox="0 0 20 20" fill="none" xmlns="http://www.w3.org/2000/svg">
<path d="M9.99992 19.375C9.13119 19.3757 8.28916 19.0859 7.61768 18.5553L3.46008 15.2854C3.02827 14.9473 2.68051 14.5204 2.44228 14.0361C2.20405 13.5517 2.08138 13.0223 2.08327 12.4864V6.07735C2.08366 5.38494 2.29039 4.70717 2.67893 4.12448C3.06747 3.54179 3.62151 3.07864 4.2753 2.79L8.43289 0.958849C8.92371 0.738943 9.45854 0.625 9.99992 0.625C10.5413 0.625 11.0761 0.738943 11.5669 0.958849L15.7245 2.79C16.3783 3.07864 16.9324 3.54179 17.3209 4.12448C17.7095 4.70717 17.9162 5.38494 17.9166 6.07735V12.4864C17.9185 13.0223 17.7958 13.5517 17.5576 14.0361C17.3193 14.5204 16.9716 14.9473 16.5398 15.2854L12.3822 18.5553C11.7107 19.0859 10.8687 19.3757 9.99992 19.375ZM9.99992 1.93546C9.65532 1.9379 9.31538 2.01227 9.00354 2.15346L4.84595 3.97589C4.42798 4.16064 4.07368 4.4567 3.8249 4.82908C3.57611 5.20146 3.44323 5.63461 3.44197 6.07735V12.4864C3.44994 12.8234 3.53529 13.1545 3.69189 13.4561C3.8485 13.7576 4.07248 14.022 4.34776 14.2303L8.50536 17.5002C8.93448 17.8389 9.47222 18.0239 10.0271 18.0239C10.582 18.0239 11.1197 17.8389 11.5488 17.5002L15.7064 14.2303C15.9817 14.022 16.2057 13.7576 16.3623 13.4561C16.5189 13.1545 16.6042 12.8234 16.6122 12.4864V6.07735C16.611 5.63461 16.4781 5.20146 16.2293 4.82908C15.9805 4.4567 15.6262 4.16064 15.2082 3.97589L10.9963 2.15346C10.6845 2.01227 10.3445 1.9379 9.99992 1.93546ZM9.99992 15.3029C7.71732 15.3029 5.9329 14.0559 5.9329 12.4602C5.98562 11.8371 6.2446 11.2467 6.67178 10.7759C7.09896 10.305 7.6718 9.97846 8.30608 9.84429C7.91397 9.58476 7.59353 9.23707 7.37255 8.83137C7.15158 8.42567 7.03673 7.9742 7.03797 7.51611C7.03797 6.75989 7.35003 6.03463 7.90551 5.4999C8.46098 4.96516 9.21436 4.66475 9.99992 4.66475C10.7855 4.66475 11.5389 4.96516 12.0943 5.4999C12.6498 6.03463 12.9619 6.75989 12.9619 7.51611C12.9631 7.9742 12.8483 8.42567 12.6273 8.83137C12.4063 9.23707 12.0859 9.58476 11.6938 9.84429C12.328 9.97846 12.9009 10.305 13.3281 10.7759C13.7552 11.2467 14.0142 11.8371 14.0669 12.4602C14.0669 14.0559 12.2825 15.3029 9.99992 15.3029ZM9.99992 10.943C8.5597 10.943 7.28253 11.658 7.28253 12.4689C7.28253 13.2799 8.55065 14.0036 9.99992 14.0036C11.4492 14.0036 12.7173 13.2886 12.7173 12.4689C12.7173 11.6493 11.4401 10.9343 9.99992 10.9343V10.943ZM9.99992 6.01631C9.68501 6.01804 9.37768 6.10951 9.11671 6.27918C8.85574 6.44886 8.65282 6.68914 8.53355 6.96971C8.41427 7.25029 8.38399 7.55858 8.44652 7.8557C8.50905 8.15283 8.6616 8.42546 8.88491 8.63922C9.10821 8.85298 9.39229 8.99828 9.70128 9.05679C10.0103 9.1153 10.3303 9.08441 10.6211 8.968C10.9119 8.85159 11.1603 8.65489 11.3351 8.4027C11.5099 8.15052 11.6032 7.85415 11.6032 7.55099C11.6044 7.34799 11.5637 7.14677 11.4836 6.95899C11.4034 6.77122 11.2854 6.60062 11.1363 6.45707C10.9872 6.31352 10.8099 6.19988 10.6149 6.12272C10.4198 6.04557 10.2108 6.00644 9.99992 6.00759V6.01631Z" fill="#666666"/>
</svg>
