<svg width="20" height="20" viewBox="0 0 20 20" fill="none" xmlns="http://www.w3.org/2000/svg">
<path d="M9.99407 18.9583C9.25578 18.9615 8.52986 18.7687 7.89042 18.3996L3.77913 16.0254C3.13836 15.6555 2.60599 15.1237 2.23528 14.4834C1.86457 13.8431 1.66852 13.1166 1.66675 12.3767V7.62824C1.66852 6.88835 1.86457 6.1619 2.23528 5.52158C2.60599 4.88126 3.13836 4.34953 3.77913 3.97958L7.89042 1.60534C8.53001 1.23607 9.25554 1.04166 9.99407 1.04166C10.7326 1.04166 11.4581 1.23607 12.0977 1.60534L16.209 3.97958C16.8498 4.34953 17.3822 4.88126 17.7529 5.52158C18.1236 6.1619 18.3196 6.88835 18.3214 7.62824V12.3767C18.3196 13.1166 18.1236 13.8431 17.7529 14.4834C17.3822 15.1237 16.8498 15.6555 16.209 16.0254L12.0977 18.3996C11.4578 18.7675 10.7322 18.9602 9.99407 18.9583ZM9.99407 2.37348C9.48538 2.36927 8.98491 2.50192 8.54508 2.75754L4.43379 5.11433C3.9981 5.373 3.63758 5.74107 3.38801 6.18204C3.13843 6.62301 3.00846 7.12155 3.01099 7.62824V12.3767C3.00846 12.8834 3.13843 13.382 3.38801 13.8229C3.63758 14.2639 3.9981 14.632 4.43379 14.8906L8.54508 17.2649C8.98592 17.5184 9.48555 17.6518 9.99407 17.6518C10.5026 17.6518 11.0022 17.5184 11.4431 17.2649L15.5543 14.8906C15.99 14.632 16.3506 14.2639 16.6001 13.8229C16.8497 13.382 16.9797 12.8834 16.9772 12.3767V7.62824C16.9797 7.12155 16.8497 6.62301 16.6001 6.18204C16.3506 5.74107 15.99 5.373 15.5543 5.11433L11.4431 2.74009C11.0032 2.48446 10.5028 2.35181 9.99407 2.35602V2.37348Z" fill="#666666"/>
<path d="M9.99406 13.5638C9.28968 13.5638 8.60113 13.3549 8.01547 12.9636C7.4298 12.5723 6.97333 12.0161 6.70378 11.3653C6.43423 10.7146 6.3637 9.9985 6.50112 9.30766C6.63853 8.61682 6.97772 7.98225 7.47579 7.48418C7.97385 6.98611 8.60843 6.64692 9.29927 6.50951C9.99011 6.37209 10.7062 6.44262 11.3569 6.71217C12.0077 6.98172 12.5639 7.43819 12.9552 8.02386C13.3466 8.60952 13.5554 9.29808 13.5554 10.0024C13.5554 10.947 13.1802 11.8528 12.5123 12.5207C11.8444 13.1886 10.9386 13.5638 9.99406 13.5638ZM9.99406 7.75041C9.54865 7.75041 9.11323 7.88249 8.74289 8.12994C8.37254 8.3774 8.08389 8.72912 7.91344 9.14063C7.74299 9.55214 7.69839 10.0049 7.78529 10.4418C7.87218 10.8787 8.08667 11.2799 8.40162 11.5949C8.71658 11.9098 9.11785 12.1243 9.55471 12.2112C9.99156 12.2981 10.4444 12.2535 10.8559 12.0831C11.2674 11.9126 11.6191 11.624 11.8666 11.2536C12.114 10.8833 12.2461 10.4479 12.2461 10.0024C12.2438 9.40588 12.0058 8.8344 11.584 8.41255C11.1621 7.99071 10.5906 7.75271 9.99406 7.75041Z" fill="#666666"/>
</svg>
