<svg width="20" height="20" viewBox="0 0 20 20" fill="none" xmlns="http://www.w3.org/2000/svg">
<path d="M18.4725 8.58905C18.4725 8.50556 18.5226 8.43042 18.5393 8.34693C18.5789 8.2104 18.6068 8.07075 18.6228 7.92949V7.73746C18.6436 7.52647 18.6436 7.31394 18.6228 7.10295L18.3055 4.59829C18.2209 3.8627 17.9317 3.16559 17.4706 2.58621C17.0909 2.10587 16.6077 1.71748 16.0569 1.45004C15.5061 1.18259 14.902 1.043 14.2897 1.04167H5.72377C4.7236 1.04509 3.75933 1.41479 3.01324 2.08089C2.26714 2.74699 1.79091 3.66334 1.67457 4.65673L1.38236 7.29497C1.36148 7.49759 1.36148 7.70182 1.38236 7.90444V8.08811C1.39732 8.21859 1.42529 8.34725 1.46585 8.47216C1.48313 8.55416 1.50544 8.63502 1.53264 8.71428C1.53264 8.80612 1.60778 8.88961 1.64953 8.98144C1.69127 9.07328 1.71632 9.15677 1.76641 9.24026V14.3665C1.76862 15.5836 2.25311 16.7503 3.11378 17.611C3.97444 18.4716 5.14112 18.9561 6.35829 18.9583H13.6135C14.2165 18.9583 14.8136 18.8396 15.3707 18.6088C15.9278 18.378 16.434 18.0398 16.8604 17.6134C17.2868 17.187 17.625 16.6808 17.8558 16.1237C18.0866 15.5666 18.2053 14.9695 18.2053 14.3665V9.14842C18.25 9.06886 18.2863 8.98493 18.3139 8.89795C18.3742 8.79902 18.4273 8.69577 18.4725 8.58905ZM14.2981 2.23556C14.7233 2.23658 15.143 2.33314 15.5259 2.51811C15.9088 2.70308 16.2453 2.97173 16.5105 3.30421C16.8344 3.7077 17.0396 4.19335 17.1033 4.70682L17.4205 7.21148C17.4331 7.34756 17.4331 7.4845 17.4205 7.62058V7.77086C17.4245 7.84595 17.4245 7.92119 17.4205 7.99628C17.4205 8.06307 17.3788 8.13821 17.3454 8.21335C17.3352 8.25084 17.3212 8.28721 17.3037 8.32188C17.2645 8.41505 17.217 8.50447 17.1617 8.58905C17.0949 8.68088 17.0365 8.77272 16.9697 8.85621C16.7708 9.08092 16.5267 9.26106 16.2533 9.3848C15.9799 9.50854 15.6835 9.57309 15.3834 9.57421C14.8547 9.58968 14.3397 9.40464 13.9418 9.05624C13.5438 8.70783 13.2923 8.22182 13.2378 7.69572L12.9789 4.71517L12.7702 2.21051L14.2981 2.23556ZM11.568 2.23556V2.46933L11.9938 7.47865C12.0182 7.75079 11.9855 8.02504 11.8978 8.28383C11.8101 8.54261 11.6693 8.78022 11.4845 8.98144C11.2962 9.17508 11.071 9.329 10.8222 9.43411C10.5734 9.53921 10.3061 9.59336 10.036 9.59336C9.76587 9.59336 9.49852 9.53921 9.24972 9.43411C9.00092 9.329 8.77572 9.17508 8.58743 8.98144C8.40176 8.78496 8.2585 8.55237 8.16658 8.29814C8.07466 8.04391 8.03603 7.77349 8.05311 7.50369L8.22843 4.03057L8.34532 2.23556H11.568ZM2.89351 4.79031C2.96757 4.09056 3.29741 3.44281 3.81975 2.97132C4.34208 2.49983 5.02012 2.23782 5.72377 2.23556H7.14308L6.79243 7.77086C6.76063 8.2722 6.53935 8.74267 6.17345 9.08686C5.80755 9.43106 5.32444 9.62319 4.8221 9.62431H4.56328C4.2858 9.62354 4.01158 9.56443 3.75843 9.4508C3.50529 9.33717 3.27887 9.17157 3.09388 8.96475C3.03084 8.89237 2.97493 8.81408 2.9269 8.73098C2.87161 8.6464 2.8241 8.55698 2.78497 8.46381C2.78183 8.43887 2.78183 8.41362 2.78497 8.38867C2.75249 8.31622 2.72732 8.24071 2.70983 8.16325C2.70508 8.10212 2.70508 8.04071 2.70983 7.97958C2.70581 7.92678 2.70581 7.87375 2.70983 7.82095C2.69733 7.69603 2.69733 7.57017 2.70983 7.44525L2.89351 4.79031ZM8.40376 17.7311V16.0613C8.40376 15.6184 8.57968 15.1937 8.89282 14.8806C9.20597 14.5674 9.63068 14.3915 10.0735 14.3915C10.5164 14.3915 10.9411 14.5674 11.2542 14.8806C11.5674 15.1937 11.7433 15.6184 11.7433 16.0613V17.7311H8.40376ZM13.6385 17.7311H12.9706V16.0613C12.9706 15.2929 12.6654 14.5561 12.1221 14.0128C11.5788 13.4694 10.8419 13.1642 10.0735 13.1642C9.30518 13.1642 8.56831 13.4694 8.025 14.0128C7.4817 14.5561 7.17648 15.2929 7.17648 16.0613V17.7311H6.34159C5.45589 17.7311 4.60646 17.3792 3.98017 16.7529C3.35389 16.1266 3.00204 15.2772 3.00204 14.3915V10.4258C3.47306 10.6939 4.00463 10.8376 4.54658 10.8432H4.8054C5.31163 10.8407 5.81007 10.7184 6.25992 10.4862C6.70977 10.254 7.09825 9.91861 7.39355 9.50742C7.46699 9.62333 7.55082 9.73231 7.64401 9.83303C7.94402 10.1551 8.30715 10.412 8.71077 10.5877C9.11439 10.7633 9.54986 10.854 9.99004 10.854C10.4302 10.854 10.8657 10.7633 11.2693 10.5877C11.6729 10.412 12.0361 10.1551 12.3361 9.83303C12.4296 9.72459 12.516 9.61026 12.5949 9.49072C13.077 10.1662 13.7966 10.6345 14.6095 10.8017C15.4224 10.969 16.2684 10.8227 16.978 10.3924V14.3915C16.978 14.8301 16.8917 15.2643 16.7238 15.6695C16.556 16.0747 16.31 16.4428 15.9999 16.7529C15.6898 17.063 15.3217 17.309 14.9165 17.4768C14.5113 17.6447 14.0771 17.7311 13.6385 17.7311Z" fill="#666666"/>
</svg>
