<svg width="20" height="20" viewBox="0 0 20 20" fill="none" xmlns="http://www.w3.org/2000/svg">
<path d="M9.58547 11.0228C10.5127 11.0228 11.4191 10.7477 12.1899 10.2324C12.9608 9.71711 13.5615 8.98471 13.9159 8.1279C14.2704 7.2711 14.3627 6.3284 14.1812 5.4191C13.9997 4.50981 13.5526 3.67479 12.8963 3.01971C12.2401 2.36463 11.4043 1.91895 10.4947 1.73905C9.58508 1.55916 8.64254 1.65314 7.78636 2.0091C6.93018 2.36506 6.19883 2.96701 5.68487 3.73876C5.17091 4.51052 4.89744 5.41739 4.89907 6.34462C4.89907 6.95966 5.02035 7.56867 5.25596 8.13679C5.49158 8.7049 5.8369 9.22099 6.27218 9.6555C6.70746 10.09 7.22415 10.4344 7.79268 10.6691C8.36122 10.9037 8.97043 11.0239 9.58547 11.0228ZM9.58547 2.89149C10.2684 2.89149 10.9361 3.09401 11.5039 3.47345C12.0718 3.85288 12.5144 4.39219 12.7757 5.02317C13.0371 5.65414 13.1055 6.34845 12.9723 7.0183C12.839 7.68814 12.5101 8.30343 12.0272 8.78636C11.5443 9.26929 10.929 9.59817 10.2591 9.73141C9.5893 9.86465 8.89499 9.79626 8.26401 9.5349C7.63303 9.27354 7.09373 8.83095 6.71429 8.26308C6.33486 7.69522 6.13233 7.02759 6.13233 6.34462C6.13233 5.4288 6.49615 4.55048 7.14373 3.90289C7.79132 3.2553 8.66964 2.89149 9.58547 2.89149ZM14.4692 10.6035C13.9393 10.6024 13.415 10.7115 12.9296 10.9238C12.4441 11.1361 12.0081 11.447 11.6491 11.8368C10.9701 11.6763 10.275 11.5936 9.57725 11.5901C5.64725 11.5901 2.25167 14.1471 1.67615 17.5509C1.66202 17.6303 1.66383 17.7117 1.68148 17.7904C1.69912 17.8692 1.73224 17.9436 1.77891 18.0094C1.82558 18.0752 1.88487 18.131 1.95333 18.1737C2.02178 18.2164 2.09805 18.245 2.17767 18.2579H2.28456C2.42932 18.2566 2.56913 18.205 2.68009 18.1121C2.79106 18.0191 2.8663 17.8905 2.89296 17.7482C3.3616 14.9364 6.23922 12.8151 9.57725 12.8151C10.0239 12.8195 10.4694 12.8607 10.9092 12.9385C10.6975 13.4205 10.5883 13.9413 10.5885 14.4677C10.5885 15.2336 10.8156 15.9823 11.2411 16.6191C11.6667 17.2559 12.2715 17.7523 12.979 18.0454C13.6866 18.3385 14.4653 18.4152 15.2164 18.2658C15.9676 18.1163 16.6576 17.7475 17.1992 17.2059C17.7408 16.6644 18.1096 15.9744 18.259 15.2232C18.4084 14.472 18.3317 13.6934 18.0386 12.9858C17.7455 12.2782 17.2492 11.6734 16.6124 11.2479C15.9756 10.8224 15.2269 10.5953 14.461 10.5953L14.4692 10.6035ZM14.4692 17.1151C13.9469 17.1167 13.4358 16.9633 13.0007 16.6743C12.5656 16.3853 12.2261 15.9737 12.025 15.4916C11.824 15.0095 11.7706 14.4786 11.8715 13.9661C11.9724 13.4536 12.2231 12.9826 12.5919 12.6127C12.9606 12.2428 13.4309 11.9906 13.9431 11.8881C14.4552 11.7856 14.9863 11.8374 15.469 12.0369C15.9518 12.2364 16.3644 12.5746 16.6548 13.0088C16.9452 13.443 17.1001 13.9536 17.1001 14.4759C17.1002 15.1745 16.8232 15.8445 16.3301 16.3392C15.8369 16.8339 15.1677 17.1129 14.4692 17.1151ZM16.1135 13.2016C16.2324 13.2997 16.309 13.4398 16.3274 13.5929C16.3457 13.746 16.3045 13.9003 16.2122 14.0237L14.8309 15.7914C14.7727 15.8645 14.699 15.9238 14.6151 15.965C14.5313 16.0062 14.4393 16.0284 14.3459 16.0298C14.2534 16.0295 14.1622 16.0078 14.0795 15.9665C13.9968 15.9251 13.9247 15.8652 13.869 15.7914L12.8659 14.517C12.7765 14.3919 12.7378 14.2375 12.7577 14.0849C12.7775 13.9324 12.8544 13.793 12.9728 13.6949C13.0963 13.6026 13.2506 13.5613 13.4037 13.5797C13.5567 13.5981 13.6969 13.6746 13.795 13.7935L14.313 14.4595L15.2503 13.292C15.3517 13.1667 15.4988 13.0868 15.6591 13.0699C15.8194 13.0529 15.9799 13.1003 16.1053 13.2016H16.1135Z" fill="#666666"/>
</svg>
