<svg width="20" height="20" viewBox="0 0 20 20" fill="none" xmlns="http://www.w3.org/2000/svg">
<path d="M19.0001 13.3834V6.65009C18.9913 5.17287 18.3983 3.75916 17.3506 2.71772C16.3029 1.67628 14.8857 1.09173 13.4084 1.09176H6.6251C5.88518 1.08734 5.15174 1.22981 4.46728 1.51093C3.78283 1.79204 3.16097 2.20621 2.63776 2.72942C2.11455 3.25263 1.70038 3.87449 1.41927 4.55894C1.13815 5.2434 0.995676 5.97684 1.0001 6.71676V13.4501C1.00948 14.5258 1.32894 15.5759 1.92018 16.4746C2.51142 17.3733 3.34933 18.0823 4.33343 18.5168C4.49177 18.5834 4.6501 18.6501 4.80843 18.7001H4.86677L5.35843 18.8334H5.43343C5.58343 18.8334 5.74177 18.8834 5.9001 18.9084H6.0001C6.1751 18.9084 6.35843 18.9084 6.54177 18.9084H6.66677H13.4501C13.6334 18.9084 13.8251 18.9084 14.0084 18.9084H14.1501C14.2929 18.8944 14.4348 18.8721 14.5751 18.8418H14.6501L15.1418 18.7084C15.3251 18.6501 15.5084 18.5751 15.6834 18.5001L16.2084 18.2668C16.6427 18.0126 17.0431 17.7046 17.4001 17.3501C17.9148 16.8268 18.3211 16.207 18.5956 15.5263C18.8702 14.8456 19.0077 14.1174 19.0001 13.3834ZM6.54177 17.7668C6.32896 17.7656 6.1168 17.7433 5.90843 17.7001C5.80418 17.6895 5.70102 17.67 5.6001 17.6418L5.40843 17.5501C5.83199 16.6966 6.48547 15.9783 7.29525 15.4761C8.10502 14.974 9.03893 14.7079 9.99177 14.7079C10.9446 14.7079 11.8785 14.974 12.6883 15.4761C13.4981 15.9783 14.1515 16.6966 14.5751 17.5501L14.3918 17.6084L14.1834 17.6501C13.9369 17.7034 13.6856 17.7313 13.4334 17.7334L6.66677 17.7751L6.54177 17.7668ZM15.7084 17.0668C15.1926 15.9892 14.3825 15.0795 13.3717 14.4428C12.3609 13.806 11.1906 13.4681 9.99593 13.4681C8.80128 13.4681 7.63098 13.806 6.62017 14.4428C5.60937 15.0795 4.79928 15.9892 4.28343 17.0668C3.67525 16.6782 3.17376 16.1438 2.8245 15.5122C2.47523 14.8806 2.28925 14.1718 2.28343 13.4501L2.2501 6.71676C2.24786 5.56738 2.70061 4.46382 3.50944 3.64719C4.31826 2.83056 5.41742 2.36723 6.56677 2.35843H13.3501C14.4966 2.36059 15.5959 2.81528 16.4089 3.62364C17.2219 4.43199 17.683 5.52863 17.6918 6.67509V13.4084C17.6965 13.9788 17.5876 14.5444 17.3716 15.0724C17.1556 15.6003 16.8366 16.08 16.4334 16.4834C16.2153 16.7055 15.972 16.9012 15.7084 17.0668ZM10.0001 5.18343C9.27985 5.18343 8.57577 5.39701 7.9769 5.79716C7.37803 6.19731 6.91127 6.76606 6.63564 7.43149C6.36001 8.09691 6.28789 8.82913 6.42841 9.53555C6.56892 10.242 6.91576 10.8908 7.42505 11.4001C7.93435 11.9094 8.58323 12.2563 9.28965 12.3968C9.99606 12.5373 10.7283 12.4652 11.3937 12.1896C12.0591 11.9139 12.6279 11.4472 13.028 10.8483C13.4282 10.2494 13.6418 9.54535 13.6418 8.82509C13.6418 7.85926 13.2581 6.93299 12.5751 6.25005C11.8922 5.5671 10.9659 5.18343 10.0001 5.18343ZM10.0001 11.2168C9.52707 11.2168 9.06467 11.0765 8.67136 10.8137C8.27805 10.5509 7.97151 10.1774 7.79049 9.74034C7.60947 9.30332 7.56211 8.82244 7.65439 8.3585C7.74667 7.89456 7.97446 7.46841 8.30894 7.13393C8.64342 6.79945 9.06957 6.57166 9.53351 6.47938C9.99745 6.3871 10.4783 6.43446 10.9154 6.61548C11.3524 6.7965 11.7259 7.10305 11.9887 7.49635C12.2515 7.88966 12.3918 8.35207 12.3918 8.82509C12.3896 9.45873 12.1369 10.0658 11.6888 10.5138C11.2408 10.9619 10.6337 11.2146 10.0001 11.2168Z" fill="#666666"/>
</svg>
