<svg width="20" height="20" viewBox="0 0 20 20" fill="none" xmlns="http://www.w3.org/2000/svg">
<path fill-rule="evenodd" clip-rule="evenodd" d="M5.49145 1.93081C6.15578 1.48692 6.93681 1.25 7.73579 1.25C8.26629 1.25 8.7916 1.35449 9.28172 1.5575C9.77184 1.76052 10.2172 2.05808 10.5923 2.4332C10.9674 2.80832 11.265 3.25366 11.468 3.74378C11.671 4.2339 11.7755 4.7592 11.7755 5.2897C11.7755 6.08868 11.5386 6.86972 11.0947 7.53404C10.6508 8.19837 10.0199 8.71615 9.28172 9.0219C8.54356 9.32766 7.73131 9.40766 6.94768 9.25179C6.16406 9.09591 5.44425 8.71117 4.87929 8.14621C4.31433 7.58124 3.92958 6.86144 3.77371 6.07781C3.61784 5.29419 3.69784 4.48194 4.00359 3.74378C4.30935 3.00562 4.82713 2.3747 5.49145 1.93081ZM6.12429 7.66795C6.60048 7.98949 7.16123 8.16278 7.73579 8.16597C8.50869 8.16599 9.25017 7.86006 9.79821 7.31506C10.3462 6.77005 10.6563 6.03027 10.6605 5.25739C10.6605 4.68281 10.4903 4.12111 10.1715 3.64315C9.85256 3.1652 9.39925 2.79239 8.86872 2.57178C8.33818 2.35117 7.7542 2.29264 7.19043 2.40356C6.62667 2.51449 6.10838 2.7899 5.70097 3.19506C5.29356 3.60022 5.01528 4.11697 4.90124 4.68011C4.78719 5.24325 4.84249 5.82756 5.06016 6.3593C5.27782 6.89105 5.64811 7.34642 6.12429 7.66795ZM1.44999 14.3467C1.44999 11.8744 4.21315 9.94344 7.73577 9.94344C11.2584 9.94344 14.0539 11.8744 14.0539 14.3467C14.0539 16.819 11.2584 18.75 7.73577 18.75C4.21315 18.75 1.44999 16.819 1.44999 14.3467ZM2.6619 14.3467C2.6619 16.0757 4.98069 17.5381 7.73577 17.5381C10.4828 17.5381 12.8016 16.0757 12.8016 14.3467C12.8016 12.6177 10.4909 11.1554 7.73577 11.1554C4.98069 11.1554 2.6619 12.6177 2.6619 14.3467ZM13.7549 9.49928C14.6292 9.48 15.46 9.1142 16.0645 8.48237C16.6691 7.85054 16.9979 7.00443 16.9786 6.13017C16.9593 5.25591 16.5935 4.42512 15.9617 3.82056C15.3299 3.216 14.4837 2.8872 13.6095 2.90648C13.4488 2.90648 13.2946 2.97032 13.181 3.08396C13.0674 3.1976 13.0035 3.35173 13.0035 3.51244C13.0035 3.67315 13.0674 3.82728 13.181 3.94091C13.2946 4.05455 13.4488 4.11839 13.6095 4.11839C13.8832 4.11203 14.1555 4.15964 14.4109 4.25852C14.6662 4.35739 14.8996 4.50559 15.0976 4.69465C15.2957 4.88371 15.4546 5.10993 15.5652 5.3604C15.6759 5.61086 15.7361 5.88067 15.7424 6.15441C15.7488 6.42814 15.7012 6.70046 15.6023 6.95579C15.5035 7.21113 15.3553 7.4445 15.1662 7.64256C14.9771 7.84062 14.7509 7.99951 14.5004 8.11015C14.25 8.22078 13.9802 8.281 13.7064 8.28737C13.5935 8.29569 13.4801 8.29569 13.3671 8.28737C13.2081 8.26862 13.048 8.3119 12.9201 8.40822C12.7921 8.50453 12.7063 8.64645 12.6804 8.80445C12.669 8.88353 12.6733 8.96408 12.6932 9.04148C12.713 9.11887 12.748 9.19157 12.796 9.2554C12.8441 9.31922 12.9043 9.37292 12.9732 9.41339C13.0421 9.45385 13.1183 9.4803 13.1974 9.4912C13.3507 9.50379 13.5047 9.50379 13.658 9.4912L13.7549 9.49928ZM18.5623 13.7571C18.5623 15.3568 17.0433 16.7061 14.8619 17.0535H14.7649C14.6211 17.0534 14.482 17.0022 14.3724 16.9089C14.2629 16.8157 14.1901 16.6865 14.1671 16.5445C14.1436 16.3862 14.1828 16.2251 14.2764 16.0953C14.3699 15.9655 14.5104 15.8774 14.668 15.8497C16.2273 15.6073 17.3504 14.7266 17.3504 13.7571C17.3504 12.5856 15.7345 11.5999 13.8197 11.5999C13.6589 11.5999 13.5048 11.536 13.3912 11.4224C13.2775 11.3088 13.2137 11.1546 13.2137 10.9939C13.2137 10.8332 13.2775 10.6791 13.3912 10.5655C13.5048 10.4518 13.6589 10.388 13.8197 10.388C16.4778 10.388 18.5623 11.8665 18.5623 13.7571Z" fill="#666666"/>
</svg>
